<?xml version="1.0" encoding="UTF-8"?>
<svg width="24px" height="24px" viewBox="0 0 24 24" version="1.1" xmlns="http://www.w3.org/2000/svg" xmlns:xlink="http://www.w3.org/1999/xlink">
    <!-- Generator: Sketch 50 (54983) - http://www.bohemiancoding.com/sketch -->
    <title>main-menu/li/icon/media-active</title>
    <desc>Created with Sketch.</desc>
    <defs></defs>
    <g id="main-menu/li/icon/media-active" stroke="none" stroke-width="1" fill="none" fill-rule="evenodd">
        <g id="icon-download" fill="#FFFFFF">
            <rect id="Path" x="0" y="0" width="24" height="24"></rect>
        </g>
        <path d="M14.3838835,16.1516504 L14.3535534,16.1819805 L15.0606602,16.1819805 L14.3535534,15.4748737 L14,15.8284271 L14.3535534,16.1819805 L14.3838835,16.1516504 Z M14.5909903,15.9445436 L14.767767,15.767767 L11.798097,12.798097 L14.767767,15.767767 L16.5909903,13.9445436 L14.5909903,15.9445436 Z M11.798097,12.798097 L11.6213203,12.6213203 L11.4445436,12.798097 L11.8890873,12.3535534 L11.6213203,12.0857864 L11.3535534,12.3535534 L11.798097,12.798097 Z M9.81066017,14.4319805 L8.35355339,15.8890873 L9.06066017,15.8890873 L8.35355339,15.1819805 L8.35355339,15.8890873 L9.81066017,14.4319805 Z M11.6213203,12.0857864 L11.5355339,12 L11.1819805,12.3535534 L11.6213203,12.7928932 L12.0606602,12.3535534 L11.7071068,12 L11.6213203,12.0857864 Z M16.3838835,13.3838835 L16.3535534,13.3535534 L16,13.7071068 L16.3535534,14.0606602 L16.767767,13.6464466 L17.1819805,14.0606602 L17.5355339,13.7071068 L17.1819805,13.3535534 L17.1516504,13.3838835 L17.1819805,13.3535534 L16.8284271,13 L16.767767,13.0606602 L16.7071068,13 L16.3535534,13.3535534 L16.3838835,13.3838835 Z M18.1516504,15.1516504 L19.1819805,16.1819805 L19.1819805,15.4748737 L18.4748737,16.1819805 L19.1819805,16.1819805 L18.1516504,15.1516504 Z M2.5,4.75 L2.5,4 L2,4.5 L2.75,4.5 L2.5,4.5 L2.5,4.75 Z M18.25,4.5 L19,4.5 L18.5,4 L18.5,5.5 L18.5,4.5 L18.25,4.5 Z M18.5,5.5 L18.5,6 L19,5.5 L18,5.5 L18.5,6 L18.5,5.5 Z M2.5,16.25 L2.5,16.5 L2.75,16.5 L2,16.5 L2.5,17 L2.5,16.25 Z M3.5,16.5 L4,16.5 L3.5,16 L3.5,17 L4,16.5 L3.5,16.5 Z M5.5,19.5 L21.5,19.5 L21.5,7.5 L5.5,7.5 L5.5,19.5 Z M5.5,19.5 L5.5,7.5 L21.5,7.5 L21.5,19.5 L5.5,19.5 Z M15,11.5 C15.2761424,11.5 15.5,11.2761424 15.5,11 C15.5,10.7238576 15.2761424,10.5 15,10.5 C14.7238576,10.5 14.5,10.7238576 14.5,11 C14.5,11.2761424 14.7238576,11.5 15,11.5 Z" id="Combined-Shape" stroke="#9451BA"></path>
    </g>
</svg>